<svg width="86" height="20" viewBox="0 0 86 20" fill="none" xmlns="http://www.w3.org/2000/svg">
<path d="M7.76953 9.92773C7.76953 10.7676 7.62109 11.5039 7.32422 12.1367C7.02734 12.7695 6.60156 13.2578 6.04688 13.6016C5.49609 13.9453 4.86328 14.1172 4.14844 14.1172C3.44141 14.1172 2.81055 13.9473 2.25586 13.6074C1.70117 13.2676 1.27148 12.7832 0.966797 12.1543C0.662109 11.5215 0.507812 10.7949 0.503906 9.97461V9.55273C0.503906 8.71289 0.654297 7.97461 0.955078 7.33789C1.25977 6.69727 1.6875 6.20703 2.23828 5.86719C2.79297 5.52344 3.42578 5.35156 4.13672 5.35156C4.84766 5.35156 5.47852 5.52344 6.0293 5.86719C6.58398 6.20703 7.01172 6.69727 7.3125 7.33789C7.61719 7.97461 7.76953 8.71094 7.76953 9.54688V9.92773ZM5.98828 9.54102C5.98828 8.64648 5.82812 7.9668 5.50781 7.50195C5.1875 7.03711 4.73047 6.80469 4.13672 6.80469C3.54688 6.80469 3.0918 7.03516 2.77148 7.49609C2.45117 7.95312 2.28906 8.625 2.28516 9.51172V9.92773C2.28516 10.7988 2.44531 11.4746 2.76562 11.9551C3.08594 12.4355 3.54688 12.6758 4.14844 12.6758C4.73828 12.6758 5.19141 12.4453 5.50781 11.9844C5.82422 11.5195 5.98438 10.8438 5.98828 9.95703V9.54102ZM12.2051 10.877H10.8047V14H9.04688V5.46875H12.2168C13.2246 5.46875 14.002 5.69336 14.5488 6.14258C15.0957 6.5918 15.3691 7.22656 15.3691 8.04688C15.3691 8.62891 15.2422 9.11523 14.9883 9.50586C14.7383 9.89258 14.3574 10.2012 13.8457 10.4316L15.6914 13.918V14H13.8047L12.2051 10.877ZM10.8047 9.45312H12.2227C12.6641 9.45312 13.0059 9.3418 13.248 9.11914C13.4902 8.89258 13.6113 8.58203 13.6113 8.1875C13.6113 7.78516 13.4961 7.46875 13.2656 7.23828C13.0391 7.00781 12.6895 6.89258 12.2168 6.89258H10.8047V9.45312ZM16.7109 14V5.46875H19.3359C20.0859 5.46875 20.7559 5.63867 21.3457 5.97852C21.9395 6.31445 22.4023 6.79492 22.7344 7.41992C23.0664 8.04102 23.2324 8.74805 23.2324 9.54102V9.93359C23.2324 10.7266 23.0684 11.4316 22.7402 12.0488C22.416 12.666 21.957 13.1445 21.3633 13.4844C20.7695 13.8242 20.0996 13.9961 19.3535 14H16.7109ZM18.4688 6.89258V12.5879H19.3184C20.0059 12.5879 20.5312 12.3633 20.8945 11.9141C21.2578 11.4648 21.4434 10.8223 21.4512 9.98633V9.53516C21.4512 8.66797 21.2715 8.01172 20.9121 7.56641C20.5527 7.11719 20.0273 6.89258 19.3359 6.89258H18.4688ZM29.6484 10.3027H26.2734V12.5879H30.2344V14H24.5156V5.46875H30.2227V6.89258H26.2734V8.92578H29.6484V10.3027ZM34.4238 10.877H33.0234V14H31.2656V5.46875H34.4355C35.4434 5.46875 36.2207 5.69336 36.7676 6.14258C37.3145 6.5918 37.5879 7.22656 37.5879 8.04688C37.5879 8.62891 37.4609 9.11523 37.207 9.50586C36.957 9.89258 36.5762 10.2012 36.0645 10.4316L37.9102 13.918V14H36.0234L34.4238 10.877ZM33.0234 9.45312H34.4414C34.8828 9.45312 35.2246 9.3418 35.4668 9.11914C35.709 8.89258 35.8301 8.58203 35.8301 8.1875C35.8301 7.78516 35.7148 7.46875 35.4844 7.23828C35.2578 7.00781 34.9082 6.89258 34.4355 6.89258H33.0234V9.45312ZM48.8555 14H47.0977L43.6758 8.38672V14H41.918V5.46875H43.6758L47.1035 11.0938V5.46875H48.8555V14ZM57.3984 9.92773C57.3984 10.7676 57.25 11.5039 56.9531 12.1367C56.6562 12.7695 56.2305 13.2578 55.6758 13.6016C55.125 13.9453 54.4922 14.1172 53.7773 14.1172C53.0703 14.1172 52.4395 13.9473 51.8848 13.6074C51.3301 13.2676 50.9004 12.7832 50.5957 12.1543C50.291 11.5215 50.1367 10.7949 50.1328 9.97461V9.55273C50.1328 8.71289 50.2832 7.97461 50.584 7.33789C50.8887 6.69727 51.3164 6.20703 51.8672 5.86719C52.4219 5.52344 53.0547 5.35156 53.7656 5.35156C54.4766 5.35156 55.1074 5.52344 55.6582 5.86719C56.2129 6.20703 56.6406 6.69727 56.9414 7.33789C57.2461 7.97461 57.3984 8.71094 57.3984 9.54688V9.92773ZM55.6172 9.54102C55.6172 8.64648 55.457 7.9668 55.1367 7.50195C54.8164 7.03711 54.3594 6.80469 53.7656 6.80469C53.1758 6.80469 52.7207 7.03516 52.4004 7.49609C52.0801 7.95312 51.918 8.625 51.9141 9.51172V9.92773C51.9141 10.7988 52.0742 11.4746 52.3945 11.9551C52.7148 12.4355 53.1758 12.6758 53.7773 12.6758C54.3672 12.6758 54.8203 12.4453 55.1367 11.9844C55.4531 11.5195 55.6133 10.8438 55.6172 9.95703V9.54102ZM65.3203 11.5391L66.4688 5.46875H68.2207L66.3281 14H64.5586L63.1699 8.29297L61.7812 14H60.0117L58.1191 5.46875H59.8711L61.0254 11.5273L62.4316 5.46875H63.9199L65.3203 11.5391Z" fill="#FFB400"/>
<path d="M76.1431 10.0002L73.7856 7.64352L74.964 6.46436L78.4998 10.0002L74.964 13.536L73.7856 12.3569L76.1431 10.0002Z" fill="#FFB400"/>
</svg>
